<?xml version="1.0" standalone="no"?>
<!DOCTYPE svg PUBLIC "-//W3C//DTD SVG 1.1//EN"
"http://www.w3.org/Graphics/SVG/1.1/DTD/svg11.dtd">

    <svg xmlns="http://www.w3.org/2000/svg" data-v-056d9bd8="" version="1.0" width="254" height="100" viewBox="0 0 254.000000 100.000000" preserveAspectRatio="xMidYMid meet" color-interpolation-filters="sRGB" class="el-tooltip"><svg width="100" height="100" x="0" y="0"><svg xmlns="http://www.w3.org/2000/svg" viewBox="0 0 45.35 58.78"><title>n4</title><g data-name="图层 2"><g data-name="Layer 1"><path fill="none" d="M11.36 26.38v-.01.01z"></path><path fill="#0071bc" d="M11.36 26.37v.01h16.33L0 0v57.73h11.36V26.37z"></path><path fill="#00a99d" d="M45.35 1.05H34v31.36H17.69l27.66 26.37V1.05z"></path><path fill="#fff" d="M34 32.38l-6.31-6H11.36l6.33 6.03H34v-.03z"></path></g></g></svg></svg><g class="font1 logoname" transform="translate(105, 28.5)" fill="#0071bc"> <path transform="translate(-3.03515625, 32.07421875)" d="M8.20-22.48L3.04-22.48L3.04-19.77L4.43-19.77L4.43-19.77Q6.23-19.93 6.07-18.13L6.07-18.13L6.07-0.16L12.39-0.16L12.39-18.29L12.39-18.29Q12.43-20.84 11.59-21.68L11.59-21.68L11.59-21.68Q10.75-22.52 8.20-22.48L8.20-22.48ZM6.07-26.66L12.39-26.66L12.39-32.07L6.07-32.07L6.07-26.66ZM44.46-0.16L50.53-0.16L50.53-18.29L50.53-18.29Q50.57-20.84 49.73-21.68L49.73-21.68L49.73-21.68Q48.89-22.52 46.35-22.48L46.35-22.48L22.31-22.48L22.31-0.16L28.38-0.16L28.38-19.77L33.39-19.77L33.39-0.16L39.46-0.16L39.46-19.77L42.82-19.77L42.82-19.77Q44.63-19.93 44.46-18.13L44.46-18.13L44.46-0.16ZM58.00-0.16L59.64-0.16L81.87-0.16L81.87-2.87L64.31-2.87L64.31-14.27L79.65-14.27L79.65-16.98L64.31-16.98L64.31-28.05L81.87-28.05L81.87-30.76L58.00-30.76L58.00-0.16ZM108.86-0.16L116.32-0.16L108.28-12.30L114.60-12.30L114.60-26.58L114.60-26.58Q114.64-29.12 113.80-29.96L113.80-29.96L113.80-29.96Q112.96-30.80 110.41-30.76L110.41-30.76L89.33-30.76L89.33-0.16L95.65-0.16L95.65-12.30L100.57-12.30L108.86-0.16ZM108.28-15.01L95.65-15.01L95.65-28.05L106.64-28.05L106.64-28.05Q108.45-28.22 108.28-26.41L108.28-26.41L108.28-15.01ZM128.38-0.16L128.38-12.80L146.92-12.80L146.92-26.58L146.92-26.58Q146.96-29.12 146.12-29.96L146.12-29.96L146.12-29.96Q145.28-30.80 142.73-30.76L142.73-30.76L122.06-30.76L122.06-0.16L128.38-0.16ZM140.60-15.50L128.38-15.50L128.38-28.05L138.96-28.05L138.96-28.05Q140.77-28.22 140.60-26.41L140.60-26.41L140.60-15.50Z"></path></g><g class="font1 slogan" transform="translate(105, 65.5)" fill="#00a99d"> <path transform="translate(-0.796875, 9.281684027777777)" d="M2.77-8.06L2.77-0.38L4.03-0.38L4.03-0.38Q7.59-0.23 7.50-4.27L7.50-4.27L7.50-4.27Q7.55-8.11 4.03-8.06L4.03-8.06L2.77-8.06ZM4.17 0.80L0.80 0.80L0.80-9.28L4.08-9.28L4.08-9.28Q9.52-9.33 9.47-4.31L9.47-4.31L9.47-4.31Q9.70 1.03 4.17 0.80L4.17 0.80ZM12.66 0.94L10.73 0.94L10.73-4.03L10.73-4.03Q10.78-6.56 13.31-6.52L13.31-6.52L15.75-6.52L15.75-5.25L13.97-5.25L13.97-5.25Q12.66-5.30 12.66-4.03L12.66-4.03L12.66 0.94ZM18.84 0.80L16.92 0.80L16.92-6.38L18.84-6.38L18.84 0.80ZM18.84-7.64L16.92-7.64L16.92-9.28L18.84-9.28L18.84-7.64ZM24.84 0.75L22.64 0.75L19.92-6.38L21.98-6.38L23.77-0.84L25.59-6.38L27.66-6.38L24.84 0.75ZM36-2.20L36-2.20L30.33-2.20L30.33-2.20Q30.61-0.23 32.86-0.19L32.86-0.19L32.86-0.19Q34.55-0.19 35.91-1.59L35.91-1.59L35.91-0.28L35.91-0.28Q34.88 0.98 32.44 0.98L32.44 0.98L32.44 0.98Q28.55 0.84 28.36-2.63L28.36-2.63L28.36-2.63Q28.45-6.42 32.16-6.56L32.16-6.56L32.16-6.56Q36.05-6.61 36-2.20ZM30.33-3.42L30.33-3.42L34.13-3.42L34.13-3.42Q34.03-5.25 32.20-5.30L32.20-5.30L32.20-5.30Q30.61-5.25 30.33-3.42ZM46.73 0.80L44.81 0.80L44.81-3.23L40.73-9.28L42.98-9.28L45.80-4.78L48.66-9.28L50.86-9.28L46.73-3.23L46.73 0.80ZM55.41-0.19L55.41-0.19L55.41-0.19Q57.28-0.19 57.28-2.72L57.28-2.72L57.28-2.72Q57.23-5.25 55.41-5.30L55.41-5.30L55.41-5.30Q53.63-5.25 53.58-2.72L53.58-2.72L53.58-2.72Q53.63-0.28 55.41-0.19ZM55.41 0.98L55.41 0.98L55.41 0.98Q51.80 0.80 51.61-2.72L51.61-2.72L51.61-2.72Q51.75-6.42 55.45-6.56L55.45-6.56L55.45-6.56Q59.11-6.42 59.25-2.77L59.25-2.77L59.25-2.77Q59.16 0.84 55.41 0.98ZM60.52-1.88L60.52-1.88L60.52-6.38L62.44-6.38L62.44-2.02L62.44-2.02Q62.39-0.19 64.13-0.23L64.13-0.23L65.53-0.23L65.53-6.38L67.45-6.38L67.45 0.94L63.47 0.94L63.47 0.94Q60.42 1.03 60.52-1.88ZM70.92 0.94L69 0.94L69-4.03L69-4.03Q69.05-6.56 71.58-6.52L71.58-6.52L74.02-6.52L74.02-5.25L72.23-5.25L72.23-5.25Q70.92-5.30 70.92-4.03L70.92-4.03L70.92 0.94ZM83.81 0.80L79.03 0.80L79.03-9.28L83.86-9.28L83.86-9.28Q87.09-9.28 87.09-6.80L87.09-6.80L87.09-6.80Q87.14-5.02 85.41-4.45L85.41-4.45L85.41-4.45Q87.47-3.94 87.52-2.06L87.52-2.06L87.52-2.06Q87.66 0.89 83.81 0.80L83.81 0.80ZM83.53-3.66L83.53-3.66L80.95-3.66L80.95-0.38L83.63-0.38L83.63-0.38Q85.59-0.33 85.55-1.97L85.55-1.97L85.55-1.97Q85.55-3.66 83.53-3.66ZM83.30-8.06L80.95-8.06L80.95-5.11L83.39-5.11L83.39-5.11Q85.13-5.11 85.13-6.61L85.13-6.61L85.13-6.61Q85.17-8.06 83.30-8.06L83.30-8.06ZM88.69-1.88L88.69-1.88L88.69-6.38L90.61-6.38L90.61-2.02L90.61-2.02Q90.56-0.19 92.30-0.23L92.30-0.23L93.70-0.23L93.70-6.38L95.63-6.38L95.63 0.94L91.64 0.94L91.64 0.94Q88.59 1.03 88.69-1.88ZM96.98-0.38L96.98-0.38L96.98-1.88L96.98-1.88Q98.63 0 100.41-0.05L100.41-0.05L100.41-0.05Q101.91 0 101.86-1.03L101.86-1.03L101.86-1.03Q101.91-1.83 100.41-2.16L100.41-2.16L100.41-2.16Q97.17-2.77 97.17-4.50L97.17-4.50L97.17-4.50Q97.36-6.42 100.22-6.56L100.22-6.56L100.22-6.56Q102.94-6.47 103.45-4.31L103.45-4.31L101.77-4.31L101.77-4.31Q101.48-5.34 100.31-5.30L100.31-5.30L100.31-5.30Q99.14-5.30 99.09-4.50L99.09-4.50L99.09-4.50Q99.05-3.66 100.78-3.42L100.78-3.42L100.78-3.42Q103.73-2.91 103.78-1.03L103.78-1.03L103.78-1.03Q103.83 1.08 100.45 1.03L100.45 1.03L100.45 1.03Q98.39 1.03 96.98-0.38ZM107.16 0.80L105.23 0.80L105.23-6.38L107.16-6.38L107.16 0.80ZM107.16-7.64L105.23-7.64L105.23-9.28L107.16-9.28L107.16-7.64ZM110.91 0.80L108.98 0.80L108.98-6.52L112.88-6.52L112.88-6.52Q115.97-6.56 115.92-3.70L115.92-3.70L115.92 0.80L114 0.80L114-3.66L114-3.66Q114-5.30 112.36-5.30L112.36-5.30L110.91-5.30L110.91 0.80ZM124.97-2.20L124.97-2.20L119.30-2.20L119.30-2.20Q119.58-0.23 121.83-0.19L121.83-0.19L121.83-0.19Q123.52-0.19 124.88-1.59L124.88-1.59L124.88-0.28L124.88-0.28Q123.84 0.98 121.41 0.98L121.41 0.98L121.41 0.98Q117.52 0.84 117.33-2.63L117.33-2.63L117.33-2.63Q117.42-6.42 121.13-6.56L121.13-6.56L121.13-6.56Q125.02-6.61 124.97-2.20ZM119.30-3.42L119.30-3.42L123.09-3.42L123.09-3.42Q123-5.25 121.17-5.30L121.17-5.30L121.17-5.30Q119.58-5.25 119.30-3.42ZM126.23-0.38L126.23-0.38L126.23-1.88L126.23-1.88Q127.88 0 129.66-0.05L129.66-0.05L129.66-0.05Q131.16 0 131.11-1.03L131.11-1.03L131.11-1.03Q131.16-1.83 129.66-2.16L129.66-2.16L129.66-2.16Q126.42-2.77 126.42-4.50L126.42-4.50L126.42-4.50Q126.61-6.42 129.47-6.56L129.47-6.56L129.47-6.56Q132.19-6.47 132.70-4.31L132.70-4.31L131.02-4.31L131.02-4.31Q130.73-5.34 129.56-5.30L129.56-5.30L129.56-5.30Q128.39-5.30 128.34-4.50L128.34-4.50L128.34-4.50Q128.30-3.66 130.03-3.42L130.03-3.42L130.03-3.42Q132.98-2.91 133.03-1.03L133.03-1.03L133.03-1.03Q133.08 1.08 129.70 1.03L129.70 1.03L129.70 1.03Q127.64 1.03 126.23-0.38ZM134.16-0.38L134.16-0.38L134.16-1.88L134.16-1.88Q135.80 0 137.58-0.05L137.58-0.05L137.58-0.05Q139.08 0 139.03-1.03L139.03-1.03L139.03-1.03Q139.08-1.83 137.58-2.16L137.58-2.16L137.58-2.16Q134.34-2.77 134.34-4.50L134.34-4.50L134.34-4.50Q134.53-6.42 137.39-6.56L137.39-6.56L137.39-6.56Q140.11-6.47 140.63-4.31L140.63-4.31L138.94-4.31L138.94-4.31Q138.66-5.34 137.48-5.30L137.48-5.30L137.48-5.30Q136.31-5.30 136.27-4.50L136.27-4.50L136.27-4.50Q136.22-3.66 137.95-3.42L137.95-3.42L137.95-3.42Q140.91-2.91 140.95-1.03L140.95-1.03L140.95-1.03Q141 1.08 137.63 1.03L137.63 1.03L137.63 1.03Q135.56 1.03 134.16-0.38Z"></path></g></svg>
